# xmcd
#
# Track frame offsets:
#	150
#	17580
#	34944
#	45706
#	59625
#	71411
#	83879
#	100125
#	108156
#	127561
#	136487
#	153034
#	166007
#
# Disc length: 2373 seconds
#
# Revision: 5
# Processed by: cddbd v1.5.1PL0 Copyright (c) Steve Scherf et al.
# Submitted via: audiograbber 1.80
#
DISCID=9909430d
DTITLE=Loretta Lynn - Van Lear Rose
DYEAR=1900
DGENRE=
TTITLE0=Van Lear Rose
TTITLE1=Portland, Oregon (with Jack White)
TTITLE2=Trouble On The Line
TTITLE3=Family Tree
TTITLE4=Have Mercy
TTITLE5=High on a Mountain Top
TTITLE6=Little Red Shoes
TTITLE7=God Makes No Mistakes
TTITLE8=Women's Prison
TTITLE9=This Old House
TTITLE10=Mrs. Leroy Brown
TTITLE11=Miss Being Mrs.
TTITLE12=Story of My Life
EXTD=
EXTT0=
EXTT1=
EXTT2=
EXTT3=
EXTT4=
EXTT5=
EXTT6=
EXTT7=
EXTT8=
EXTT9=
EXTT10=
EXTT11=
EXTT12=
PLAYORDER=
